<?xml version="1.0" encoding="UTF-8" standalone="no"?>
<!DOCTYPE svg PUBLIC "-//W3C//DTD SVG 1.1//EN" "http://www.w3.org/Graphics/SVG/1.1/DTD/svg11.dtd">
<svg width="100%" height="100%" viewBox="0 0 900 180" version="1.1" xmlns="http://www.w3.org/2000/svg" xmlns:xlink="http://www.w3.org/1999/xlink" xml:space="preserve" xmlns:serif="http://www.serif.com/" style="fill-rule:evenodd;clip-rule:evenodd;stroke-linejoin:round;stroke-miterlimit:2;">
    <g transform="matrix(1.17279,0,0,1.17279,-42.6361,-266.004)">
        <g transform="matrix(96,0,0,96,87.5087,329.848)">
            <path d="M0.747,-0.388C0.775,-0.467 0.813,-0.572 0.813,-0.647C0.813,-0.702 0.793,-0.74 0.733,-0.74C0.698,-0.74 0.659,-0.716 0.63,-0.681C0.594,-0.634 0.552,-0.555 0.505,-0.468C0.481,-0.425 0.457,-0.38 0.432,-0.336L0.358,-0.336C0.346,-0.336 0.336,-0.326 0.336,-0.314C0.336,-0.303 0.346,-0.293 0.358,-0.293L0.407,-0.293C0.339,-0.179 0.253,-0.043 0.152,-0.043C0.092,-0.043 0.042,-0.08 0.042,-0.137C0.042,-0.199 0.096,-0.26 0.154,-0.26C0.169,-0.26 0.186,-0.252 0.191,-0.252C0.203,-0.252 0.212,-0.262 0.212,-0.273C0.212,-0.281 0.208,-0.288 0.2,-0.292C0.185,-0.299 0.169,-0.302 0.154,-0.302C0.074,-0.302 0,-0.225 0,-0.137C0,-0.054 0.069,-0 0.152,-0C0.275,-0 0.376,-0.155 0.456,-0.293L0.668,-0.293L0.664,-0.282C0.624,-0.175 0.552,0.015 0.552,0.076C0.552,0.159 0.587,0.208 0.662,0.21C0.673,0.21 0.683,0.2 0.683,0.189C0.683,0.177 0.673,0.167 0.662,0.167C0.615,0.167 0.595,0.139 0.595,0.076C0.595,0.024 0.664,-0.162 0.703,-0.268C0.708,-0.28 0.725,-0.326 0.747,-0.388ZM0.707,-0.403L0.683,-0.336L0.48,-0.336C0.501,-0.373 0.522,-0.412 0.542,-0.448C0.588,-0.533 0.63,-0.611 0.664,-0.655C0.681,-0.677 0.71,-0.697 0.733,-0.697C0.762,-0.697 0.772,-0.675 0.772,-0.642C0.772,-0.577 0.73,-0.467 0.707,-0.403Z" style="fill-rule:nonzero;"/>
        </g>
        <g transform="matrix(96,0,0,96,160.949,329.848)">
            <path d="M0.444,-0.238C0.441,-0.239 0.438,-0.24 0.435,-0.24C0.427,-0.24 0.42,-0.235 0.416,-0.227C0.355,-0.095 0.319,-0.042 0.272,-0.042C0.251,-0.042 0.242,-0.055 0.242,-0.084C0.242,-0.161 0.32,-0.292 0.32,-0.381C0.32,-0.434 0.298,-0.475 0.226,-0.475C0.193,-0.475 0.162,-0.456 0.133,-0.426L0.141,-0.446C0.146,-0.459 0.136,-0.474 0.121,-0.474C0.112,-0.474 0.104,-0.469 0.101,-0.46C0.062,-0.353 -0.001,-0.172 -0.053,-0.028C-0.057,-0.016 -0.051,-0.005 -0.04,-0.001C-0.029,0.002 -0.017,-0.003 -0.013,-0.015L0.057,-0.213C0.089,-0.298 0.165,-0.433 0.226,-0.433C0.265,-0.433 0.278,-0.41 0.278,-0.381C0.278,-0.294 0.2,-0.178 0.2,-0.084C0.2,-0.035 0.224,-0 0.272,-0C0.34,-0 0.387,-0.059 0.455,-0.21C0.456,-0.213 0.457,-0.216 0.457,-0.219C0.457,-0.227 0.452,-0.234 0.444,-0.238Z" style="fill-rule:nonzero;"/>
        </g>
        <g transform="matrix(96,0,0,96,199.253,329.848)">
            <path d="M0.444,-0.238C0.441,-0.239 0.438,-0.24 0.435,-0.24C0.427,-0.24 0.42,-0.235 0.416,-0.227C0.355,-0.095 0.319,-0.042 0.272,-0.042C0.251,-0.042 0.242,-0.055 0.242,-0.084C0.242,-0.161 0.32,-0.292 0.32,-0.381C0.32,-0.434 0.298,-0.475 0.226,-0.475C0.193,-0.475 0.162,-0.456 0.133,-0.426L0.141,-0.446C0.146,-0.459 0.136,-0.474 0.121,-0.474C0.112,-0.474 0.104,-0.469 0.101,-0.46C0.062,-0.353 -0.001,-0.172 -0.053,-0.028C-0.057,-0.016 -0.051,-0.005 -0.04,-0.001C-0.029,0.002 -0.017,-0.003 -0.013,-0.015L0.057,-0.213C0.089,-0.298 0.165,-0.433 0.226,-0.433C0.265,-0.433 0.278,-0.41 0.278,-0.381C0.278,-0.294 0.2,-0.178 0.2,-0.084C0.2,-0.035 0.224,-0 0.272,-0C0.34,-0 0.387,-0.059 0.455,-0.21C0.456,-0.213 0.457,-0.216 0.457,-0.219C0.457,-0.227 0.452,-0.234 0.444,-0.238Z" style="fill-rule:nonzero;"/>
        </g>
        <g transform="matrix(96,0,0,96,237.557,329.848)">
            <path d="M0.448,-0.238C0.445,-0.239 0.442,-0.24 0.439,-0.24C0.431,-0.24 0.424,-0.235 0.42,-0.227L0.419,-0.224C0.386,-0.15 0.338,-0.042 0.276,-0.042C0.255,-0.042 0.246,-0.054 0.246,-0.084C0.246,-0.128 0.279,-0.215 0.315,-0.316L0.365,-0.45C0.37,-0.462 0.362,-0.478 0.346,-0.478C0.337,-0.478 0.329,-0.473 0.326,-0.465C0.321,-0.452 0.315,-0.437 0.309,-0.42C0.291,-0.456 0.26,-0.473 0.218,-0.473C0.098,-0.473 -0.003,-0.239 -0.003,-0.108C-0.003,-0.048 0.023,-0 0.079,-0C0.122,-0 0.164,-0.028 0.204,-0.084C0.204,-0.035 0.228,-0 0.276,-0C0.366,-0 0.42,-0.123 0.458,-0.207L0.459,-0.21C0.46,-0.213 0.461,-0.216 0.461,-0.219C0.461,-0.227 0.456,-0.234 0.448,-0.238ZM0.078,-0.042C0.048,-0.042 0.039,-0.071 0.039,-0.115C0.041,-0.214 0.126,-0.429 0.218,-0.431C0.254,-0.431 0.28,-0.404 0.282,-0.358L0.258,-0.294C0.218,-0.192 0.159,-0.042 0.078,-0.042Z" style="fill-rule:nonzero;"/>
        </g>
        <g transform="matrix(96,0,0,96,305.045,329.848)">
            <path d="M0.759,-0.532C0.764,-0.653 0.666,-0.739 0.524,-0.739C0.324,-0.739 0.205,-0.577 0.205,-0.363C0.205,-0.351 0.215,-0.342 0.226,-0.342C0.238,-0.342 0.247,-0.351 0.247,-0.363C0.247,-0.551 0.344,-0.693 0.524,-0.696C0.636,-0.698 0.72,-0.638 0.717,-0.532C0.712,-0.416 0.597,-0.341 0.461,-0.336C0.445,-0.336 0.437,-0.326 0.437,-0.315C0.437,-0.305 0.445,-0.294 0.461,-0.294C0.563,-0.293 0.586,-0.215 0.586,-0.13C0.586,-0.06 0.569,0.033 0.569,0.079C0.569,0.158 0.605,0.21 0.679,0.21C0.692,0.21 0.702,0.2 0.702,0.187C0.702,0.174 0.692,0.167 0.679,0.167C0.634,0.167 0.613,0.141 0.611,0.079C0.611,0.054 0.628,-0.067 0.628,-0.131C0.628,-0.205 0.613,-0.272 0.561,-0.309C0.674,-0.34 0.755,-0.424 0.759,-0.532ZM0.53,-0.619C0.54,-0.628 0.551,-0.634 0.561,-0.636C0.57,-0.638 0.579,-0.644 0.579,-0.66C0.579,-0.671 0.568,-0.678 0.556,-0.678C0.542,-0.678 0.52,-0.668 0.502,-0.652C0.448,-0.602 0.421,-0.504 0.389,-0.396C0.342,-0.243 0.285,-0.04 0.145,-0.04C0.09,-0.04 0.042,-0.074 0.042,-0.134C0.042,-0.194 0.09,-0.256 0.145,-0.256C0.151,-0.256 0.157,-0.255 0.162,-0.254C0.177,-0.25 0.188,-0.261 0.188,-0.275C0.188,-0.293 0.171,-0.299 0.144,-0.299C0.068,-0.299 0,-0.221 0,-0.134C0,-0.052 0.064,0.002 0.146,0.002C0.312,0.002 0.374,-0.204 0.429,-0.384C0.457,-0.475 0.487,-0.584 0.53,-0.619Z" style="fill-rule:nonzero;"/>
        </g>
        <g transform="matrix(96,0,0,96,374.645,329.848)">
            <path d="M0.362,-0.238C0.351,-0.242 0.339,-0.237 0.334,-0.227C0.278,-0.098 0.214,-0.04 0.132,-0.042C0.072,-0.044 0.04,-0.079 0.042,-0.136C0.043,-0.157 0.046,-0.176 0.053,-0.202C0.164,-0.229 0.313,-0.293 0.313,-0.399C0.313,-0.447 0.278,-0.473 0.228,-0.473C0.11,-0.473 0.006,-0.265 0,-0.137C-0.002,-0.055 0.048,-0 0.131,-0C0.232,-0 0.308,-0.066 0.373,-0.21C0.374,-0.213 0.375,-0.215 0.375,-0.218C0.375,-0.226 0.37,-0.234 0.362,-0.238ZM0.069,-0.25C0.101,-0.327 0.159,-0.431 0.228,-0.431C0.25,-0.431 0.271,-0.426 0.271,-0.399C0.271,-0.325 0.152,-0.276 0.069,-0.25Z" style="fill-rule:nonzero;"/>
        </g>
        <g transform="matrix(96,0,0,96,405.077,329.848)">
            <path d="M0.163,-0.524C0.182,-0.524 0.197,-0.539 0.197,-0.558C0.197,-0.577 0.182,-0.592 0.163,-0.592C0.144,-0.592 0.128,-0.577 0.128,-0.558C0.128,-0.539 0.144,-0.524 0.163,-0.524ZM0.229,-0.238C0.226,-0.239 0.224,-0.24 0.221,-0.24C0.213,-0.24 0.205,-0.235 0.201,-0.227C0.164,-0.145 0.118,-0.042 0.056,-0.042C0.035,-0.042 0.026,-0.055 0.026,-0.084C0.026,-0.127 0.044,-0.173 0.141,-0.446C0.147,-0.463 0.134,-0.473 0.121,-0.473C0.113,-0.473 0.105,-0.468 0.102,-0.459C0.058,-0.345 -0.013,-0.162 -0.016,-0.084C-0.018,-0.038 0.008,-0 0.056,-0C0.14,-0 0.192,-0.102 0.24,-0.21C0.241,-0.213 0.242,-0.216 0.242,-0.219C0.242,-0.227 0.237,-0.235 0.229,-0.238Z" style="fill-rule:nonzero;"/>
        </g>
        <g transform="matrix(96,0,0,96,422.741,329.848)">
            <path d="M0.33,-0.177C0.329,-0.245 0.302,-0.28 0.25,-0.376C0.281,-0.411 0.306,-0.455 0.306,-0.495C0.304,-0.524 0.287,-0.547 0.258,-0.547C0.217,-0.547 0.185,-0.503 0.185,-0.451C0.185,-0.428 0.191,-0.406 0.2,-0.385C0.188,-0.373 0.178,-0.362 0.166,-0.348C0.163,-0.344 0.161,-0.339 0.161,-0.335C0.161,-0.329 0.163,-0.322 0.168,-0.318C0.172,-0.314 0.178,-0.313 0.183,-0.313C0.189,-0.313 0.195,-0.316 0.199,-0.321C0.205,-0.329 0.212,-0.337 0.219,-0.344C0.272,-0.251 0.287,-0.222 0.288,-0.178C0.286,-0.095 0.228,-0.042 0.147,-0.042C0.089,-0.042 0.038,-0.085 0.038,-0.146C0.042,-0.207 0.078,-0.253 0.133,-0.253C0.159,-0.253 0.184,-0.228 0.186,-0.194C0.186,-0.182 0.195,-0.173 0.207,-0.173C0.219,-0.173 0.228,-0.182 0.228,-0.194C0.226,-0.249 0.184,-0.295 0.132,-0.295C0.052,-0.295 0.002,-0.236 -0.004,-0.146C-0.004,-0.065 0.064,-0 0.147,-0C0.248,-0 0.328,-0.069 0.33,-0.177ZM0.232,-0.42C0.229,-0.431 0.227,-0.441 0.227,-0.452C0.227,-0.466 0.23,-0.484 0.242,-0.496C0.252,-0.506 0.263,-0.509 0.263,-0.495C0.263,-0.473 0.248,-0.442 0.232,-0.42Z" style="fill-rule:nonzero;"/>
        </g>
        <g transform="matrix(96,0,0,96,459.701,329.848)">
            <path d="M0.445,-0.239C0.442,-0.24 0.439,-0.241 0.436,-0.241C0.428,-0.241 0.421,-0.236 0.417,-0.228C0.372,-0.122 0.315,-0.061 0.257,-0.024C0.267,-0.073 0.268,-0.122 0.246,-0.158C0.301,-0.205 0.324,-0.28 0.324,-0.344C0.324,-0.421 0.286,-0.473 0.214,-0.473C0.118,-0.473 0.059,-0.329 0.002,-0.193C0.001,-0.19 -0,-0.187 -0,-0.184C-0,-0.172 0.011,-0.163 0.022,-0.163C0.03,-0.163 0.036,-0.168 0.04,-0.176L0.044,-0.185C0.091,-0.291 0.145,-0.431 0.214,-0.431C0.261,-0.431 0.282,-0.396 0.282,-0.344C0.282,-0.288 0.265,-0.225 0.218,-0.191C0.164,-0.234 0.086,-0.23 0.086,-0.167C0.086,-0.113 0.149,-0.108 0.21,-0.136C0.229,-0.102 0.221,-0.052 0.206,0.002C0.157,0.023 0.11,0.03 0.068,0.037C-0.041,0.056 -0.087,0.096 -0.087,0.164C-0.087,0.227 -0.045,0.26 0.018,0.26C0.113,0.26 0.186,0.18 0.239,0.034C0.317,-0.002 0.396,-0.071 0.456,-0.212C0.457,-0.215 0.458,-0.217 0.458,-0.22C0.458,-0.228 0.453,-0.236 0.445,-0.239ZM0.182,-0.167C0.16,-0.158 0.129,-0.155 0.129,-0.167C0.129,-0.185 0.152,-0.186 0.182,-0.167ZM0.185,0.055C0.136,0.161 0.082,0.219 0.017,0.219C-0.02,0.219 -0.045,0.191 -0.045,0.163C-0.045,0.119 -0.01,0.092 0.075,0.079C0.109,0.073 0.146,0.067 0.185,0.055Z" style="fill-rule:nonzero;"/>
        </g>
        <g transform="matrix(96,0,0,96,526.805,329.848)">
            <path d="M0.521,-0.239C0.51,-0.243 0.497,-0.238 0.493,-0.227C0.428,-0.069 0.344,0.018 0.208,0.018C0.114,0.018 0.042,-0.037 0.042,-0.138C0.042,-0.242 0.111,-0.335 0.219,-0.374C0.252,-0.352 0.284,-0.34 0.316,-0.34C0.35,-0.34 0.375,-0.358 0.375,-0.391C0.375,-0.419 0.344,-0.435 0.314,-0.435C0.296,-0.435 0.25,-0.427 0.227,-0.421C0.202,-0.443 0.183,-0.474 0.183,-0.505C0.183,-0.523 0.185,-0.536 0.188,-0.547C0.215,-0.539 0.245,-0.532 0.283,-0.532C0.38,-0.532 0.492,-0.583 0.494,-0.661C0.494,-0.711 0.448,-0.741 0.385,-0.741C0.29,-0.741 0.203,-0.688 0.163,-0.602C0.107,-0.637 0.078,-0.662 0.047,-0.726C0.043,-0.734 0.036,-0.738 0.028,-0.738C0.025,-0.738 0.022,-0.737 0.019,-0.736C0.011,-0.732 0.007,-0.725 0.007,-0.718C0.007,-0.714 0.008,-0.711 0.009,-0.708C0.038,-0.646 0.089,-0.59 0.149,-0.563C0.147,-0.555 0.14,-0.532 0.14,-0.504C0.14,-0.468 0.158,-0.432 0.183,-0.405C0.075,-0.359 0,-0.268 0,-0.138C0,-0.017 0.086,0.06 0.208,0.06C0.362,0.06 0.461,-0.037 0.532,-0.211C0.533,-0.214 0.534,-0.216 0.534,-0.219C0.534,-0.227 0.529,-0.235 0.521,-0.239ZM0.202,-0.587C0.233,-0.652 0.306,-0.699 0.385,-0.699C0.419,-0.699 0.452,-0.687 0.452,-0.661C0.449,-0.611 0.355,-0.575 0.283,-0.575C0.252,-0.575 0.228,-0.579 0.202,-0.587ZM0.28,-0.389C0.298,-0.392 0.311,-0.393 0.316,-0.393C0.327,-0.393 0.333,-0.39 0.333,-0.387C0.334,-0.385 0.331,-0.383 0.324,-0.382C0.31,-0.381 0.295,-0.383 0.28,-0.389Z" style="fill-rule:nonzero;"/>
        </g>
        <g transform="matrix(96,0,0,96,572.501,329.848)">
            <path d="M0.475,-0.238C0.472,-0.239 0.469,-0.24 0.467,-0.24C0.459,-0.24 0.451,-0.235 0.447,-0.228C0.4,-0.125 0.352,-0.042 0.28,-0.042C0.257,-0.042 0.248,-0.06 0.248,-0.084C0.248,-0.11 0.266,-0.169 0.281,-0.215C0.29,-0.243 0.409,-0.583 0.419,-0.612C0.423,-0.623 0.416,-0.64 0.399,-0.64C0.391,-0.64 0.383,-0.635 0.38,-0.627L0.327,-0.474L0.308,-0.422C0.292,-0.453 0.263,-0.473 0.218,-0.473C0.097,-0.473 -0.003,-0.239 -0.003,-0.108C-0.003,-0.048 0.023,-0 0.079,-0C0.13,-0 0.171,-0.038 0.206,-0.088C0.206,-0.032 0.233,-0 0.28,-0C0.372,-0 0.428,-0.085 0.486,-0.21C0.487,-0.213 0.488,-0.216 0.488,-0.219C0.488,-0.227 0.483,-0.234 0.475,-0.238ZM0.078,-0.042C0.048,-0.042 0.039,-0.071 0.039,-0.115C0.041,-0.214 0.126,-0.428 0.218,-0.431C0.257,-0.431 0.28,-0.404 0.282,-0.358C0.282,-0.356 0.282,-0.354 0.281,-0.351C0.274,-0.335 0.267,-0.315 0.258,-0.294C0.218,-0.192 0.159,-0.042 0.078,-0.042Z" style="fill-rule:nonzero;"/>
        </g>
        <g transform="matrix(96,0,0,96,613.781,329.848)">
            <path d="M0.163,-0.524C0.182,-0.524 0.197,-0.539 0.197,-0.558C0.197,-0.577 0.182,-0.592 0.163,-0.592C0.144,-0.592 0.128,-0.577 0.128,-0.558C0.128,-0.539 0.144,-0.524 0.163,-0.524ZM0.229,-0.238C0.226,-0.239 0.224,-0.24 0.221,-0.24C0.213,-0.24 0.205,-0.235 0.201,-0.227C0.164,-0.145 0.118,-0.042 0.056,-0.042C0.035,-0.042 0.026,-0.055 0.026,-0.084C0.026,-0.127 0.044,-0.173 0.141,-0.446C0.147,-0.463 0.134,-0.473 0.121,-0.473C0.113,-0.473 0.105,-0.468 0.102,-0.459C0.058,-0.345 -0.013,-0.162 -0.016,-0.084C-0.018,-0.038 0.008,-0 0.056,-0C0.14,-0 0.192,-0.102 0.24,-0.21C0.241,-0.213 0.242,-0.216 0.242,-0.219C0.242,-0.227 0.237,-0.235 0.229,-0.238Z" style="fill-rule:nonzero;"/>
        </g>
        <g transform="matrix(96,0,0,96,631.445,329.848)">
            <path d="M0.254,-0.238C0.251,-0.239 0.248,-0.24 0.245,-0.24C0.237,-0.24 0.229,-0.235 0.225,-0.228C0.178,-0.125 0.13,-0.042 0.058,-0.042C0.038,-0.042 0.026,-0.057 0.026,-0.084C0.026,-0.113 0.039,-0.159 0.08,-0.275C0.113,-0.368 0.13,-0.414 0.136,-0.433L0.218,-0.433C0.23,-0.433 0.239,-0.442 0.239,-0.454C0.239,-0.465 0.23,-0.475 0.218,-0.475L0.151,-0.475C0.158,-0.494 0.201,-0.616 0.198,-0.61C0.203,-0.623 0.193,-0.638 0.178,-0.638C0.169,-0.638 0.161,-0.633 0.158,-0.624C0.157,-0.62 0.108,-0.479 0.106,-0.475L0.029,-0.475C0.017,-0.475 0.008,-0.465 0.008,-0.454C0.008,-0.442 0.017,-0.433 0.029,-0.433L0.092,-0.433L0.041,-0.29C0.009,-0.208 -0.016,-0.121 -0.016,-0.084C-0.016,-0.036 0.01,-0 0.058,-0C0.15,-0 0.206,-0.085 0.264,-0.21C0.265,-0.213 0.266,-0.216 0.266,-0.219C0.266,-0.227 0.261,-0.234 0.254,-0.238Z" style="fill-rule:nonzero;"/>
        </g>
        <g transform="matrix(96,0,0,96,651.413,329.848)">
            <path d="M0.163,-0.524C0.182,-0.524 0.197,-0.539 0.197,-0.558C0.197,-0.577 0.182,-0.592 0.163,-0.592C0.144,-0.592 0.128,-0.577 0.128,-0.558C0.128,-0.539 0.144,-0.524 0.163,-0.524ZM0.229,-0.238C0.226,-0.239 0.224,-0.24 0.221,-0.24C0.213,-0.24 0.205,-0.235 0.201,-0.227C0.164,-0.145 0.118,-0.042 0.056,-0.042C0.035,-0.042 0.026,-0.055 0.026,-0.084C0.026,-0.127 0.044,-0.173 0.141,-0.446C0.147,-0.463 0.134,-0.473 0.121,-0.473C0.113,-0.473 0.105,-0.468 0.102,-0.459C0.058,-0.345 -0.013,-0.162 -0.016,-0.084C-0.018,-0.038 0.008,-0 0.056,-0C0.14,-0 0.192,-0.102 0.24,-0.21C0.241,-0.213 0.242,-0.216 0.242,-0.219C0.242,-0.227 0.237,-0.235 0.229,-0.238Z" style="fill-rule:nonzero;"/>
        </g>
        <g transform="matrix(96,0,0,96,669.077,329.848)">
            <path d="M0.444,-0.238C0.441,-0.239 0.438,-0.24 0.435,-0.24C0.427,-0.24 0.42,-0.235 0.416,-0.227C0.355,-0.095 0.319,-0.042 0.272,-0.042C0.251,-0.042 0.242,-0.055 0.242,-0.084C0.242,-0.161 0.32,-0.292 0.32,-0.381C0.32,-0.434 0.298,-0.475 0.226,-0.475C0.193,-0.475 0.162,-0.456 0.133,-0.426L0.141,-0.446C0.146,-0.459 0.136,-0.474 0.121,-0.474C0.112,-0.474 0.104,-0.469 0.101,-0.46C0.062,-0.353 -0.001,-0.172 -0.053,-0.028C-0.057,-0.016 -0.051,-0.005 -0.04,-0.001C-0.029,0.002 -0.017,-0.003 -0.013,-0.015L0.057,-0.213C0.089,-0.298 0.165,-0.433 0.226,-0.433C0.265,-0.433 0.278,-0.41 0.278,-0.381C0.278,-0.294 0.2,-0.178 0.2,-0.084C0.2,-0.035 0.224,-0 0.272,-0C0.34,-0 0.387,-0.059 0.455,-0.21C0.456,-0.213 0.457,-0.216 0.457,-0.219C0.457,-0.227 0.452,-0.234 0.444,-0.238Z" style="fill-rule:nonzero;"/>
        </g>
        <g transform="matrix(96,0,0,96,707.381,329.848)">
            <path d="M0.458,-0.237C0.455,-0.238 0.452,-0.239 0.449,-0.239C0.441,-0.239 0.434,-0.234 0.43,-0.226C0.38,-0.108 0.31,-0.016 0.195,0.023L0.237,-0.099L0.29,-0.248C0.322,-0.333 0.349,-0.405 0.365,-0.444C0.371,-0.462 0.358,-0.473 0.344,-0.473C0.336,-0.473 0.328,-0.468 0.325,-0.459L0.309,-0.418C0.292,-0.452 0.262,-0.473 0.217,-0.473C0.098,-0.473 0.003,-0.247 -0.002,-0.115C-0.002,-0.051 0.014,-0 0.08,-0C0.116,-0 0.148,-0.02 0.175,-0.048L0.145,0.038C0.118,0.045 0.091,0.05 0.066,0.054C-0.054,0.076 -0.103,0.122 -0.103,0.185C-0.103,0.244 -0.064,0.283 -0.004,0.282C0.068,0.281 0.13,0.21 0.178,0.073C0.324,0.03 0.407,-0.063 0.469,-0.209C0.47,-0.212 0.471,-0.215 0.471,-0.218C0.471,-0.226 0.466,-0.233 0.458,-0.237ZM0.078,-0.042C0.041,-0.042 0.039,-0.073 0.041,-0.114C0.043,-0.213 0.125,-0.429 0.218,-0.431C0.254,-0.431 0.281,-0.403 0.281,-0.35L0.259,-0.293C0.219,-0.191 0.158,-0.042 0.078,-0.042ZM-0.004,0.24C-0.038,0.241 -0.061,0.219 -0.061,0.184C-0.057,0.138 -0.018,0.112 0.074,0.096C0.092,0.093 0.11,0.089 0.129,0.085C0.096,0.186 0.05,0.239 -0.004,0.24Z" style="fill-rule:nonzero;"/>
        </g>
    </g>
    <g transform="matrix(1.12981,0,0,1.1453,-0.642247,-1.62409)">
        <path d="M797.163,1.418L0.567,1.418L0.567,158.582L797.163,158.582L797.163,1.418ZM792.184,6.33L792.184,153.67L5.546,153.67L5.546,6.33L792.184,6.33Z" style="fill:rgb(55,114,94);"/>
    </g>
</svg>
